<svg xmlns="http://www.w3.org/2000/svg" width="56" height="32" viewBox="0 0 56 32"><defs><linearGradient id="a" x1="-61.501" y1="77.878" x2="-61.484" y2="77.878" gradientUnits="objectBoundingBox"><stop offset="0" stop-color="#1e5cd8"/><stop offset="1" stop-color="#02afff"/></linearGradient></defs><g data-name="Сгруппировать 2004"><g data-name="AMEX 32 #3"><rect data-name="Прямоугольник 1012" width="56" height="32" rx="4" fill="#fff"/></g><g data-name="Mir Logo"><path data-name="Контур 35" d="M18.312 12.396l-1.411 4.888h-.241l-1.41-4.888a1.94 1.94 0 00-1.865-1.4h-3.384v10.64h3.388v-6.288h.241l1.94 6.288h2.422l1.936-6.288h.241v6.288h3.387v-10.64h-3.383a1.939 1.939 0 00-1.861 1.4zm18.758 9.243h3.409v-3.146h3.43a4.179 4.179 0 003.912-2.44H37.07zm-6.036-9.517l-2.385 5.166h-.241V11H25.02v10.64h2.876a1.941 1.941 0 001.76-1.123l2.378-5.16h.241v6.284h3.388v-10.64h-2.876a1.941 1.941 0 00-1.753 1.121z" fill="#046848"/><path data-name="Контур 36" d="M243.47-38.757a3.728 3.728 0 012.534.989 3.712 3.712 0 011.22 2.756 3.818 3.818 0 01-.063.661h-6.293a4.764 4.764 0 01-4.545-3.325c-.008-.021-.012-.046-.021-.07-.017-.059-.029-.121-.046-.179a4.927 4.927 0 01-.12-.831z" transform="translate(-199.224 49.757)" fill="url(#a)"/></g></g></svg>