<svg data-name="Visa 32 #3" xmlns="http://www.w3.org/2000/svg" width="56" height="32" viewBox="0 0 56 32"><rect data-name="Прямоугольник 1012" width="56" height="32" rx="4" fill="#fff"/><path d="M28.213 13.835c-.021 1.671 1.489 2.6 2.627 3.158 1.169.569 1.562.934 1.557 1.442-.009.779-.933 1.122-1.8 1.136a6.271 6.271 0 01-3.082-.733l-.543 2.542a9.038 9.038 0 003.34.62c3.152 0 5.215-1.556 5.226-3.969.012-3.062-4.236-3.232-4.207-4.6.01-.415.406-.858 1.274-.97a5.65 5.65 0 012.959.519l.528-2.46a8.044 8.044 0 00-2.808-.52c-2.967 0-5.054 1.577-5.071 3.835m12.95-3.623a1.368 1.368 0 00-1.277.851l-4.5 10.752h3.15l.627-1.732h3.85l.364 1.732h2.776l-2.423-11.6h-2.567m.437 3.132l.912 4.353h-2.49l1.578-4.353m-17.207-3.135l-2.483 11.6h3l2.482-11.6h-3m-4.441 0l-3.123 7.898-1.264-6.716a1.4 1.4 0 00-1.385-1.182H9.071L9 10.549a12.5 12.5 0 012.962.987 1.27 1.27 0 01.713 1.02l2.394 9.26h3.173L23.1 10.212h-3.148" fill="#1a1d76" stroke="rgba(0,0,0,0)"/></svg>