<svg xmlns="http://www.w3.org/2000/svg" width="135" height="40" viewBox="0 0 135 40"><g transform="translate(-846 -5859)"><rect width="135" height="40" rx="5" transform="translate(846 5859)" fill="#fff"/><path d="M910.123 5892.492v-12.051h1.8v1.507h.034a3.206 3.206 0 012.883-1.6c2.3 0 3.813 1.815 3.813 4.621s-1.507 4.622-3.779 4.622a3.075 3.075 0 01-2.851-1.584h-.041v4.486zm1.854-7.524c0 1.824.955 3.048 2.372 3.048 1.448 0 2.394-1.2 2.394-3.048 0-1.831-.946-3.036-2.394-3.036-1.417-.001-2.372 1.227-2.372 3.038zm-11.817 7.524v-12.051h1.8v1.507h.034a3.208 3.208 0 012.883-1.6c2.3 0 3.813 1.815 3.813 4.621s-1.507 4.622-3.779 4.622a3.071 3.071 0 01-2.847-1.584h-.043v4.486zm1.852-7.524c0 1.824.953 3.048 2.376 3.048 1.444 0 2.39-1.2 2.39-3.048 0-1.831-.946-3.036-2.39-3.036-1.425-.001-2.377 1.227-2.377 3.038zm21.324 1.067h1.905c.137 1.23 1.331 2.039 2.968 2.039 1.565 0 2.691-.809 2.691-1.919 0-.964-.68-1.541-2.288-1.935l-1.61-.39c-2.279-.55-3.338-1.617-3.338-3.347 0-2.143 1.867-3.613 4.518-3.613 2.626 0 4.423 1.471 4.484 3.613h-1.876c-.11-1.237-1.137-1.987-2.633-1.987s-2.522.757-2.522 1.86c0 .877.655 1.393 2.257 1.789l1.365.335c2.549.6 3.608 1.626 3.608 3.443 0 2.325-1.849 3.777-4.792 3.777-2.757.002-4.617-1.419-4.739-3.665zm31.411-1.022c0-2.842 1.644-4.685 4.189-4.685 2.5 0 4.081 1.721 4.081 4.467v.637h-6.394v.113a2.348 2.348 0 00.64 1.831 2.361 2.361 0 001.795.734 2.053 2.053 0 002.09-1.273h1.766c-.25 1.643-1.851 2.772-3.9 2.772-2.636 0-4.268-1.766-4.268-4.597zm2.559-2.509a2.3 2.3 0 00-.676 1.629h4.527a2.177 2.177 0 00-.608-1.633 2.172 2.172 0 00-1.613-.665h-.016a2.289 2.289 0 00-1.616.669zm-17.711 2.464c0-2.849 1.676-4.64 4.295-4.64s4.295 1.791 4.295 4.64-1.662 4.642-4.295 4.642-4.297-1.786-4.297-4.64zm1.892 0c0 1.964.894 3.106 2.4 3.106s2.4-1.143 2.4-3.106-.894-3.107-2.4-3.107-2.402 1.161-2.402 3.109zm-3.93 4.579c-1.831 0-2.547-.687-2.547-2.443v-5.191h-1.317v-1.471h1.317v-2.142h1.867v2.142h1.721v1.471h-1.721v4.99c0 .777.342 1.138 1.1 1.138.207 0 .412-.018.615-.04v1.461a5.026 5.026 0 01-.935.088c-.037-.001-.069-.001-.102-.003zm12.157-.052v-9.054h1.772v1.54h.043a2.16 2.16 0 012.178-1.635 2.78 2.78 0 01.638.069v1.737a2.573 2.573 0 00-.836-.11 1.864 1.864 0 00-1.446.594 1.864 1.864 0 00-.489 1.486v5.372zm-52.746 0l-1.135-3.355h-4.734l-1.135 3.355h-2l4.482-12.419h2.083l4.484 12.419zm-5.378-4.905h3.752l-1.849-5.446h-.052zm-22.457 4.905c-1.38 0-2.441-1.453-3.351-2.752-1.854-2.707-3.295-7.629-1.363-10.978a5.32 5.32 0 014.473-2.728c1.418-.029 2.736.96 3.608.96s2.484-1.183 4.164-1.007a5.066 5.066 0 013.991 2.157 4.946 4.946 0 00-2.356 4.153 4.782 4.782 0 002.919 4.4 10.978 10.978 0 01-1.518 3.092c-.894 1.338-1.833 2.646-3.322 2.672-1.446.031-1.932-.854-3.59-.854-1.673 0-2.191.828-3.579.885zm40.01-14.185v-.766a2.034 2.034 0 00.291.016.77.77 0 00.813-.628l.067-.219-1.63-4.521h.968l1.128 3.577h.07l1.124-3.577h.943l-1.678 4.689c-.385 1.1-.811 1.448-1.728 1.448a3.36 3.36 0 01-.37-.019zm-5.39-.117v-6h.856v.743h.065a1.572 1.572 0 011.417-.817c1.144 0 1.867.895 1.867 2.324s-.723 2.327-1.86 2.327a1.464 1.464 0 01-1.385-.755h-.07v2.178zm.872-3.745c0 .937.469 1.524 1.214 1.524s1.205-.574 1.205-1.529-.448-1.524-1.2-1.524-1.221.586-1.221 1.529zm-15 1.986a1.988 1.988 0 01-.746-1.358h.89c.054.57.579.939 1.351.939s1.279-.414 1.279-1-.478-.954-1.306-.954h-.824v-.812h.8a.993.993 0 00.771-.228 1 1 0 00.356-.723c0-.55-.415-.905-1.117-.905a1.059 1.059 0 00-.8.212 1.068 1.068 0 00-.4.723h-.878a1.875 1.875 0 01.676-1.331 1.87 1.87 0 011.435-.414c1.173 0 2 .657 2 1.6a1.382 1.382 0 01-1.083 1.364v.07a1.391 1.391 0 011.329 1.443 2 2 0 01-.741 1.356 2 2 0 01-1.489.418 2.061 2.061 0 01-.268.019 1.979 1.979 0 01-1.238-.419zm40.566.35a2.051 2.051 0 01-1.579-.681 2.06 2.06 0 01-.5-1.645 2.076 2.076 0 01.5-1.648 2.082 2.082 0 011.574-.705c1.252 0 2.011.858 2.011 2.272v.309h-3.18v.05a1.2 1.2 0 00.313.912 1.19 1.19 0 00.887.379 1.083 1.083 0 001.07-.546h.856a1.83 1.83 0 01-1.755 1.313 1.913 1.913 0 01-.2-.01zm-.838-3.584a1.155 1.155 0 00-.336.831h2.272a1.089 1.089 0 00-.295-.831 1.086 1.086 0 00-.811-.338h-.014a1.159 1.159 0 00-.819.338zm-15.741 2.219h.883c.088.4.459.6.98.6.592 0 .955-.262.955-.667 0-.432-.324-.64-.955-.64h-.674v-.691h.663c.538 0 .811-.205.811-.581 0-.331-.264-.583-.811-.583-.5 0-.86.21-.917.565h-.858a1.583 1.583 0 011.775-1.32c1.069 0 1.682.484 1.682 1.246a.925.925 0 01-.709.923v.07a1.007 1.007 0 01.878 1.011c0 .858-.728 1.424-1.84 1.424-.987.003-1.785-.447-1.866-1.357zm-18.8 1.011a1.349 1.349 0 01-.45-1.006c0-.812.6-1.277 1.673-1.345l1.221-.07v-.39c0-.475-.313-.743-.921-.743-.5 0-.84.183-.939.5h-.86c.09-.774.817-1.272 1.84-1.272 1.128 0 1.766.563 1.766 1.514v3.079h-.858v-.633h-.07a1.51 1.51 0 01-1.352.705c-.047 0-.094.009-.142.009a1.356 1.356 0 01-.912-.349zm1.342-1.7c-.619.042-.9.254-.9.65s.352.64.835.64a1.067 1.067 0 00.793-.243 1.075 1.075 0 00.374-.741v-.376zm39.758 1.966v-4.5h2.029c.881 0 1.4.446 1.4 1.146a.964.964 0 01-.759.95v.07a1.026 1.026 0 01.962 1.038c0 .786-.59 1.3-1.579 1.3zm.881-.683h1.054c.525 0 .807-.234.807-.66 0-.448-.318-.659-.919-.659h-.941zm0-1.973h.88c.536 0 .793-.207.793-.588 0-.352-.223-.579-.694-.579h-.979zm-11.743 2.655v-3.755h-1.419v-.75h3.728v.75h-1.419v3.755zm-3.425 0v-3.115h-.068l-2.079 3.115h-.88v-4.5h.88v3.1h.07l2.077-3.1h.88v4.5zm-22.013 0v-4.5h2.964v.75h-2.077v3.755zm-27.278-.957a4.624 4.624 0 011.144-3.36 4.954 4.954 0 013.207-1.66 4.88 4.88 0 01-1.115 3.491 4.1 4.1 0 01-3.194 1.529z"/></g></svg>