<svg xmlns="http://www.w3.org/2000/svg" width="135" height="40" viewBox="0 0 135 40"><defs><linearGradient id="a" x1=".915" y1="-.845" x2="-.383" y2="-1.514" gradientUnits="objectBoundingBox"><stop offset="0" stop-color="#00a0ff"/><stop offset=".007" stop-color="#00a1ff"/><stop offset=".26" stop-color="#00beff"/><stop offset=".512" stop-color="#00d2ff"/><stop offset=".76" stop-color="#00dfff"/><stop offset="1" stop-color="#00e3ff"/></linearGradient><linearGradient id="b" x1="1.076" y1="-4.76" x2="-1.305" y2="-4.76" gradientUnits="objectBoundingBox"><stop offset="0" stop-color="#ffe000"/><stop offset=".409" stop-color="#ffbd00"/><stop offset=".775" stop-color="orange"/><stop offset="1" stop-color="#ff9c00"/></linearGradient><linearGradient id="c" x1=".862" y1="-3.678" x2="-.501" y2="-5.447" gradientUnits="objectBoundingBox"><stop offset="0" stop-color="#ff3a44"/><stop offset="1" stop-color="#c31162"/></linearGradient><linearGradient id="d" x1="-.188" y1="-.958" x2=".421" y2="-1.748" gradientUnits="objectBoundingBox"><stop offset="0" stop-color="#32a071"/><stop offset=".068" stop-color="#2da771"/><stop offset=".476" stop-color="#15cf74"/><stop offset=".801" stop-color="#06e775"/><stop offset="1" stop-color="#00f076"/></linearGradient></defs><g transform="translate(-701 -5859)"><rect width="135" height="40" rx="5" transform="translate(701 5859)" fill="#fff"/><path d="M774.525 5890.567l1.628-.678a2.351 2.351 0 002.142 1.516c1.4 0 2.272-.87 2.272-2.5v-.612h-.065a2.9 2.9 0 01-2.239.966 4.211 4.211 0 01-4.076-4.236 4.229 4.229 0 014.076-4.268 2.946 2.946 0 012.239.95h.065v-.693h1.77v7.637c0 3.14-1.851 4.43-4.042 4.43a4.053 4.053 0 01-3.77-2.512zm1.531-5.543a2.439 2.439 0 002.367 2.561 2.377 2.377 0 002.272-2.561 2.4 2.4 0 00-2.272-2.595 2.46 2.46 0 00-2.366 2.592zm43.686 7.771l1.9-4.214-3.329-7.574h2.011l2.219 5.419h.065l2.14-5.419h2.074l-5.13 11.788zm-33.344-7.786a4.042 4.042 0 014.011-4.252 3.949 3.949 0 013.642 2.705l.193.483-5.687 2.352a2.161 2.161 0 002.061 1.288 2.425 2.425 0 002.095-1.176l1.45.969a4.231 4.231 0 01-3.545 1.883 4.162 4.162 0 01-4.22-4.255zm1.854-.129l3.8-1.578a1.644 1.644 0 00-1.579-.9 2.333 2.333 0 00-2.221 2.475zm-23.386.129a4.192 4.192 0 014.27-4.252 4.192 4.192 0 014.27 4.252 4.2 4.2 0 01-4.27 4.252 4.2 4.2 0 01-4.27-4.255zm1.869 0a2.46 2.46 0 002.4 2.576 2.46 2.46 0 002.4-2.576 2.452 2.452 0 00-2.4-2.579 2.452 2.452 0 00-2.4 2.576zm-11.182 0a4.192 4.192 0 014.27-4.252 4.191 4.191 0 014.268 4.252 4.2 4.2 0 01-4.268 4.252 4.2 4.2 0 01-4.27-4.255zm1.867 0a2.46 2.46 0 002.4 2.576 2.459 2.459 0 002.4-2.576 2.45 2.45 0 00-2.4-2.579 2.452 2.452 0 00-2.4 2.576zm-15.379-2.355a6.7 6.7 0 016.7-6.605 6.288 6.288 0 014.527 1.819l-1.27 1.273a4.607 4.607 0 00-3.257-1.289 4.738 4.738 0 00-4.736 4.8 4.737 4.737 0 004.736 4.8 4.41 4.41 0 003.335-1.322 3.767 3.767 0 00.984-2.271h-4.32v-1.8h6.074a5.788 5.788 0 01.1 1.126 5.956 5.956 0 01-1.563 4.223 6.038 6.038 0 01-4.608 1.852 6.7 6.7 0 01-6.702-6.606zm68.788 3.833c0-1.833 1.818-2.814 3.6-2.814a4.144 4.144 0 011.946.481v-.126a1.8 1.8 0 00-1.961-1.61 1.769 1.769 0 00-1.705.917l-1.657-.691a3.507 3.507 0 013.329-1.915c2.14 0 3.8 1.239 3.8 3.457v4.795h-1.8v-.966h-.065a2.628 2.628 0 01-2.378 1.223 2.888 2.888 0 01-3.108-2.751zm1.867.032c0 .757.852 1.061 1.464 1.061a2.261 2.261 0 002.218-1.978 3.321 3.321 0 00-1.7-.419c-.92 0-1.981.372-1.981 1.336zm-4.761 2.481v-12.5h1.865v12.5zm-9.6 0v-12.5h4.473a3.962 3.962 0 014.1 3.883 3.962 3.962 0 01-4.1 3.883h-2.605v4.736zm1.867-6.475h2.653a2.178 2.178 0 002.187-2.145 2.165 2.165 0 00-2.187-2.142h-2.653zM783.63 5889v-12.5h1.869v12.5zm-35.965-15.727v-1.272h-4.549v1.272h-.739v-2.009h.588a2.875 2.875 0 00.763-2.3v-2.966h4v5.264h.669v2.009zm-3.167-4.307a3.983 3.983 0 01-.57 2.3h3.034v-4.527h-2.464zm40.161 2.257a3.06 3.06 0 01-.883-2.223 3.067 3.067 0 01.883-2.226 2.941 2.941 0 012.2-.909 2.939 2.939 0 012.2.912 3.07 3.07 0 01.89 2.223 3.06 3.06 0 01-.885 2.223 2.936 2.936 0 01-2.2.91 2.932 2.932 0 01-2.206-.909zm.57-3.945a2.352 2.352 0 00-.667 1.723 2.347 2.347 0 00.667 1.721 2.2 2.2 0 001.628.673 2.2 2.2 0 001.63-.673 2.349 2.349 0 00.669-1.721 2.353 2.353 0 00-.669-1.723 2.194 2.194 0 00-1.63-.674 2.194 2.194 0 00-1.629.675zm-17.846 4.723l.2-.712a.841.841 0 00.4.105.688.688 0 00.415-.1.933.933 0 00.272-.38l.218-.478-2.02-4.433h.905l1.482 3.441h.036l1.448-3.441h.905l-2.272 5.061a1.506 1.506 0 01-1.4 1.072 1.568 1.568 0 01-.591-.134zm-10.423-.764a3.03 3.03 0 01-.9-2.236 3.025 3.025 0 01.9-2.236 3.012 3.012 0 012.221-.9 2.776 2.776 0 012.205.981l-.539.519a2.015 2.015 0 00-1.667-.762 2.264 2.264 0 00-1.655.662 2.316 2.316 0 00-.673 1.734 2.321 2.321 0 00.673 1.734 2.269 2.269 0 001.655.659 2.372 2.372 0 001.845-.869l.536.536a2.931 2.931 0 01-1.032.784 3.152 3.152 0 01-1.349.288 3.022 3.022 0 01-2.222-.893zm-6.943-.014a3.06 3.06 0 01-.883-2.223 3.067 3.067 0 01.883-2.226 2.946 2.946 0 012.2-.909 2.948 2.948 0 012.2.912 3.078 3.078 0 01.887 2.223 3.068 3.068 0 01-.883 2.223 2.945 2.945 0 01-2.2.91 2.936 2.936 0 01-2.206-.909zm.57-3.945a2.352 2.352 0 00-.667 1.723 2.347 2.347 0 00.667 1.721 2.2 2.2 0 001.628.673 2.2 2.2 0 001.63-.673 2.338 2.338 0 00.667-1.721 2.342 2.342 0 00-.667-1.723 2.2 2.2 0 00-1.63-.674 2.194 2.194 0 00-1.631.675zm42.508 4.723v-6h2.171a1.768 1.768 0 011.221.464 1.512 1.512 0 01.514 1.169 1.307 1.307 0 01-.221.755 1.419 1.419 0 01-.592.5v.031a1.525 1.525 0 01.729.521 1.364 1.364 0 01.286.854 1.586 1.586 0 01-.541 1.226 1.857 1.857 0 01-1.279.486zm.772-.736h1.549a.924.924 0 00.721-.313.994.994 0 00.277-.678.962.962 0 00-.286-.674.965.965 0 00-.746-.306h-1.516zm0-2.691h1.4a.9.9 0 00.7-.291.919.919 0 00.263-.633.922.922 0 00-.257-.628.859.859 0 00-.673-.284h-1.432zm-11.86 3.428v-2.707h-3v2.707h-.771v-6h.771v2.572h3v-2.572h.772v6zm-5.917 0v-5.264h-2.8v5.264h-.772v-6h4.342v6zm-12.185 0v-5.264h-1.675v-.736h4.124v.736h-1.676v5.264z"/><path d="M79.354 111.038a2 2 0 00-.463 1.4v22.116a2 2 0 00.463 1.4l.074.072 12.389-12.389v-.292l-12.389-12.39z" transform="translate(632.082 5755.5)" fill="url(#a)"/><path d="M95.946 127.779l-4.129-4.132v-.292l4.13-4.131.093.054 4.893 2.78c1.4.794 1.4 2.093 0 2.887l-4.893 2.78z" transform="translate(632.082 5755.5)" fill="url(#b)"/><path d="M96.04 127.725l-4.223-4.225-12.463 12.464a1.626 1.626 0 002.078.061l14.608-8.3" transform="translate(632.082 5755.5)" fill="url(#c)"/><path d="M96.04 119.277l-14.608-8.3a1.626 1.626 0 00-2.078.061L91.817 123.5z" transform="translate(632.082 5755.5)" fill="url(#d)"/><path d="M711.51 5891.533l-.074-.071a2.006 2.006 0 01-.462-1.405v-.146a2.006 2.006 0 00.462 1.405l.074.072a1.669 1.669 0 002-.012l14.515-8.247.092.092-14.607 8.3a2.3 2.3 0 01-1.121.336 1.291 1.291 0 01-.879-.324z" stroke="transparent" opacity=".2"/><path d="M733.015 5880.3l-4.986 2.833.093.093 4.893-2.78a1.755 1.755 0 001.049-1.444 1.863 1.863 0 01-1.049 1.298z" style="isolation:isolate" opacity=".12"/><path d="M713.514 5866.623l19.5 11.08a1.863 1.863 0 011.049 1.3 1.756 1.756 0 00-1.049-1.444l-19.5-11.08c-1.4-.794-2.541-.134-2.541 1.466v.146c0-1.602 1.143-2.262 2.541-1.468z" style="isolation:isolate" opacity=".25" fill="#fff"/></g></svg>