<svg data-name="MasterCard 32 #3" xmlns="http://www.w3.org/2000/svg" width="56" height="32" viewBox="0 0 56 32"><rect data-name="Прямоугольник 1012" width="56" height="32" rx="4" fill="#fff"/><path data-name="Контур 237" d="M18.627 27.921v-1.593a.945.945 0 00-1-1.009.982.982 0 00-.892.451.932.932 0 00-.839-.451.839.839 0 00-.743.377v-.313h-.551v2.538h.557v-1.4a.595.595 0 01.621-.674c.366 0 .552.239.552.669v1.412h.557v-1.403a.6.6 0 01.621-.674c.377 0 .557.239.557.669v1.412zm8.248-2.538h-.908v-.77h-.555v.77h-.5v.5h.515v1.168c0 .589.228.94.881.94a1.3 1.3 0 00.69-.2l-.159-.473a1.019 1.019 0 01-.488.143c-.265 0-.366-.17-.366-.425v-1.148h.9zm4.709-.064a.749.749 0 00-.669.372v-.308h-.547v2.538h.552v-1.423c0-.419.181-.653.531-.653a.9.9 0 01.345.064l.17-.531a1.181 1.181 0 00-.393-.069zm-7.12.265a1.9 1.9 0 00-1.035-.265c-.642 0-1.062.308-1.062.812 0 .414.308.669.876.749l.265.037c.3.042.446.122.446.265 0 .2-.2.308-.579.308a1.351 1.351 0 01-.844-.265l-.265.43a1.832 1.832 0 001.1.329c.733 0 1.157-.345 1.157-.828s-.334-.68-.887-.759l-.265-.037c-.239-.032-.43-.08-.43-.25s.181-.3.483-.3a1.635 1.635 0 01.8.218zm14.789-.265a.749.749 0 00-.669.372v-.308h-.547v2.538h.552v-1.423c0-.419.181-.653.531-.653a.9.9 0 01.345.064l.17-.531a1.181 1.181 0 00-.393-.069zm-7.115 1.327a1.282 1.282 0 001.354 1.327 1.327 1.327 0 00.913-.3l-.265-.446a1.115 1.115 0 01-.664.228.815.815 0 010-1.625 1.115 1.115 0 01.664.228l.265-.446a1.327 1.327 0 00-.913-.3 1.282 1.282 0 00-1.354 1.327zm5.171 0v-1.263h-.552v.308a.964.964 0 00-.8-.372 1.327 1.327 0 100 2.655.964.964 0 00.8-.372v.308h.555zm-2.055 0a.762.762 0 11.207.575.767.767 0 01-.205-.574zm-6.662-1.326a1.328 1.328 0 10.037 2.655 1.542 1.542 0 001.054-.345l-.265-.409a1.208 1.208 0 01-.738.265.7.7 0 01-.759-.621h1.885v-.212a1.207 1.207 0 00-1.205-1.327zm0 .494a.629.629 0 01.642.616h-1.322a.653.653 0 01.674-.616zm13.834.839v-2.289h-.531v1.327a.964.964 0 00-.8-.372 1.327 1.327 0 000 2.655.964.964 0 00.8-.372v.308h.531zm-2.041 0a.762.762 0 11.207.575.767.767 0 01-.208-.576zm-18.644 0v-1.27h-.552v.308a.964.964 0 00-.8-.372 1.327 1.327 0 100 2.655.964.964 0 00.8-.372v.308h.552zm-2.055 0a.325.325 0 11-.005 0z" fill="#231f20"/><g data-name="Group"><path data-name="Прямоугольник 116" fill="#ff5f00" d="M24.234 5.893h8.411v15.116h-8.411z"/><path data-name="Path" d="M24.769 13.455a9.6 9.6 0 013.672-7.557 9.614 9.614 0 00-13.5 1.619 9.612 9.612 0 001.619 13.5 9.611 9.611 0 0011.879 0 9.6 9.6 0 01-3.67-7.562z" fill="#eb001b"/><path data-name="Контур 33" d="M43.995 13.456a9.613 9.613 0 01-9.614 9.613 9.614 9.614 0 01-5.941-2.056 9.614 9.614 0 001.619-13.5 9.679 9.679 0 00-1.619-1.618 9.613 9.613 0 0113.5 1.615 9.614 9.614 0 012.055 5.946z" fill="#f79e1b"/></g></svg>