<svg xmlns="http://www.w3.org/2000/svg" width="56" height="32" viewBox="0 0 56 32"><g data-name="Сгруппировать 1981"><g data-name="Google Pay 32 #3"><rect data-name="Прямоугольник 1012" width="56" height="32" rx="4" fill="#fff"/></g><g data-name="Сгруппировать 1980"><path data-name="Контур 884" d="M21.843 7.565l9.966-2.72-.528-1.067a1.4 1.4 0 00-1.881-.634l-8.921 4.421z" fill="#52ae32"/><path data-name="Контур 885" d="M34.901 4.923a1.4 1.4 0 00-.371.051l-2.341.64-7.15 1.949h11.654l-.438-1.606a1.4 1.4 0 00-1.354-1.034z" fill="#bccf05"/><path data-name="Контур 886" d="M38.156 8.548H17.407a1.405 1.405 0 00-1.356 1.04 1.453 1.453 0 00-.051.368v15.632a1.4 1.4 0 001.4 1.4h20.75a1.4 1.4 0 001.4-1.4v-3.916h-8.33a2.388 2.388 0 01-2.386-2.386v-3.122a2.383 2.383 0 012.383-2.383h8.332V9.949a1.4 1.4 0 00-1.393-1.401z" fill="#804e2c"/><path data-name="Вычитание 13" d="M39.594 20.69h-8.367a1.4 1.4 0 01-1.4-1.4v-3.125a1.4 1.4 0 011.4-1.4h8.367a1.431 1.431 0 01.459.074 1.47 1.47 0 01.488.289A1.389 1.389 0 0141 16.165v3.125a1.391 1.391 0 01-.459 1.037 1.405 1.405 0 01-.488.293 1.533 1.533 0 01-.459.07zm-6.1-4.016a1.184 1.184 0 101.182 1.18 1.181 1.181 0 00-1.178-1.18z" fill="#da9429"/></g></g></svg>